<svg width="512" height="512" viewBox="0 0 512 512" fill="none" xmlns="http://www.w3.org/2000/svg">
<g clip-path="url(#clip0_1080_4)">
<mask id="mask0_1080_4" style="mask-type:luminance" maskUnits="userSpaceOnUse" x="0" y="0" width="512" height="512">
<path d="M0 -3.8147e-06H512V512H0V-3.8147e-06Z" fill="white"/>
</mask>
<g mask="url(#mask0_1080_4)">
<path d="M336.842 161.684C336.84 186.7 326.901 210.691 309.211 228.378C291.52 246.066 267.528 256.002 242.513 256C217.497 255.998 193.506 246.059 175.818 228.369C158.131 210.679 148.195 186.687 148.197 161.671C148.199 136.655 158.138 112.664 175.828 94.9766C193.518 77.289 217.51 67.3532 242.526 67.3549C267.542 67.3567 291.533 77.296 309.22 94.9861C326.908 112.676 336.844 136.668 336.842 161.684Z" fill="#3A73E6"/>
<path d="M471.566 202.105C471.566 223.546 463.048 244.108 447.887 259.269C432.727 274.43 412.164 282.947 390.723 282.947C369.283 282.947 348.72 274.43 333.559 259.269C318.399 244.108 309.881 223.546 309.881 202.105C309.881 180.665 318.399 160.102 333.559 144.941C348.72 129.78 369.283 121.263 390.723 121.263C412.164 121.263 432.727 129.78 447.887 144.941C463.048 160.102 471.566 180.665 471.566 202.105Z" fill="#3A73E6"/>
<path d="M309.895 161.684C309.893 179.553 302.793 196.69 290.156 209.324C277.52 221.958 260.382 229.054 242.513 229.053C224.644 229.051 207.508 221.951 194.873 209.314C182.239 196.678 175.143 179.54 175.145 161.671C175.146 143.802 182.246 126.665 194.883 114.031C201.14 107.776 208.568 102.813 216.743 99.4283C224.917 96.0432 233.679 94.3014 242.526 94.3023C251.374 94.3032 260.135 96.0468 268.309 99.4335C276.483 102.82 283.91 107.784 290.166 114.041C296.422 120.298 301.384 127.726 304.769 135.9C308.154 144.075 309.896 152.836 309.895 161.684Z" fill="#345A94"/>
<path d="M269.473 161.684C269.473 176.559 256 188.632 242.526 188.632C229.052 188.632 215.579 176.559 215.579 161.684C215.579 154.537 218.418 147.683 223.471 142.63C228.525 137.576 235.379 134.737 242.526 134.737C249.673 134.737 256.527 137.576 261.581 142.63C266.634 147.683 269.473 154.537 269.473 161.684Z" fill="#20364C"/>
<path d="M417.684 404.21C417.684 418.504 412.006 432.213 401.899 442.32C391.792 452.427 378.083 458.105 363.789 458.105H188.632C174.338 458.105 160.629 452.427 150.522 442.32C140.415 432.213 134.737 418.504 134.737 404.21V296.421C134.737 282.127 140.415 268.419 150.522 258.312C160.629 248.204 174.338 242.526 188.632 242.526H363.789C378.083 242.526 391.792 248.204 401.899 258.312C412.006 268.419 417.684 282.127 417.684 296.421V404.21Z" fill="#3A73E6"/>
<path d="M323.368 256H282.947V215.579H323.368V256Z" fill="#3A73E6"/>
<path d="M444.618 202.105C444.618 216.399 438.94 230.107 428.833 240.215C418.725 250.322 405.017 256 390.723 256C376.43 256 362.721 250.322 352.614 240.215C342.507 230.107 336.829 216.399 336.829 202.105C336.829 187.811 342.507 174.103 352.614 163.996C362.721 153.889 376.43 148.211 390.723 148.211C405.017 148.211 418.725 153.889 428.833 163.996C438.94 174.103 444.618 187.811 444.618 202.105Z" fill="#345A94"/>
<path d="M417.67 202.105C417.67 205.645 416.971 209.15 415.616 212.42C414.261 215.69 412.275 218.66 409.771 221.163C407.267 223.665 404.296 225.65 401.025 227.003C397.754 228.357 394.249 229.053 390.71 229.053C387.17 229.052 383.665 228.354 380.395 226.998C377.125 225.643 374.154 223.657 371.652 221.153C369.15 218.65 367.165 215.678 365.811 212.407C364.458 209.137 363.761 205.631 363.762 202.092C363.764 194.943 366.606 188.088 371.662 183.034C376.718 177.981 383.574 175.143 390.723 175.144C397.872 175.146 404.727 177.988 409.781 183.044C414.834 188.1 417.672 194.957 417.67 202.105Z" fill="#20364C"/>
<path d="M148.21 296.421H121.263L40.4209 242.526H26.9473V431.158H40.4209L121.263 377.263H148.21C158.931 377.263 169.212 373.004 176.792 365.424C184.373 357.844 188.631 347.562 188.631 336.842C188.631 326.122 184.373 315.84 176.792 308.26C169.212 300.68 158.931 296.421 148.21 296.421Z" fill="#3A73E6"/>
<path d="M444.631 296.421V309.895H377.263C370.116 309.895 363.262 312.734 358.208 317.787C353.155 322.841 350.315 329.695 350.315 336.842C350.315 343.989 353.155 350.843 358.208 355.897C363.262 360.95 370.116 363.79 377.263 363.79H444.631V377.263H485.052V296.421H444.631Z" fill="#3A73E6"/>
<path d="M377.263 417.684H242.526V282.947H377.263V417.684Z" fill="#194A93"/>
<path d="M350.316 390.737H269.474V309.895H350.316V390.737Z" fill="#3A73E6"/>
<path d="M215.565 390.737C215.565 394.277 214.866 397.781 213.511 401.051C212.156 404.321 210.17 407.292 207.666 409.794C205.162 412.297 202.191 414.281 198.92 415.635C195.649 416.989 192.144 417.685 188.605 417.684C185.065 417.683 181.56 416.985 178.29 415.63C175.02 414.274 172.049 412.288 169.547 409.785C167.045 407.281 165.06 404.309 163.706 401.039C162.353 397.768 161.656 394.263 161.657 390.723C161.659 383.575 164.501 376.72 169.557 371.666C174.613 366.612 181.469 363.774 188.618 363.776C195.767 363.778 202.622 366.619 207.676 371.675C212.729 376.732 215.567 383.588 215.565 390.737Z" fill="#194A93"/>
</g>
</g>
<defs>
<clipPath id="clip0_1080_4">
<rect width="512" height="512" fill="white"/>
</clipPath>
</defs>
</svg>
